# xmcd
#
# Track frame offsets: 
#        150
#        41666
#        62838
#        86295
#        101994
#        122610
#        141215
#        163220
#        182620
#        210585
#        232558
#        254417
#        270263
#        294883
#        313923
#        332004
#
# Disc length: 4790 seconds
#
# Revision: 4
# Processed by: cddbd v1.5.2PL0 Copyright (c) Steve Scherf et al.
# Submitted via: ExactAudioCopy v1.3
#
DISCID=de12b410
DTITLE=Various Artist - Akella Presents - vol. 03 - Various Styles Of
DTITLE=Blues  CD1
DYEAR=2013
DGENRE=Blues
TTITLE0=STEVIE RAY VAUGHAN - Tin Pan Alley
TTITLE1=COLIN JAMES - Saviour
TTITLE2=TONY JOE WHITE - (You're Gonna Look) Good in Blues
TTITLE3=WAYNE SHARP and The SHARPSHOOTER BAND - Drivin' Thru the Delta
TTITLE4=PETER GREEN - I'm Ready For You
TTITLE5=BLUES COMPANY - What Love Can Do
TTITLE6=LUCKY PETERSON - Who Been Talking
TTITLE7=TINSLEY ELLIS - Sign of the Blues
TTITLE8=WILLIE EDWARDS - Helpless, Hopeless Feeling
TTITLE9=MICROWAVE DAVE - Road Runner
TTITLE10=RAY MANZAREK - Blues In My Shoes
TTITLE11=OSCAR BENTON - Bensonhurst Blues
TTITLE12=The TRAVELIN' WILBURES - The Monkey Man
TTITLE13=JOHN HIATT - What Love Can Do
TTITLE14=JOHN CAMPBELLJOHN - No Philosopher
TTITLE15=ANDRE WILLIAMS - Stuck In The Middle
EXTD=
EXTT0=
EXTT1=
EXTT2=
EXTT3=
EXTT4=
EXTT5=
EXTT6=
EXTT7=
EXTT8=
EXTT9=
EXTT10=
EXTT11=
EXTT12=
EXTT13=
EXTT14=
EXTT15=
PLAYORDER=
